<svg enable-background="new 0 0 202.9 60" id="Layer_1" version="1.1" viewBox="0 0 202.9 60" x="0px" xml:space="preserve" xmlns:xlink="http://www.w3.org/1999/xlink" xmlns="http://www.w3.org/2000/svg" y="0px">
  <path d="M194.2,60H8.5C3.8,60,0,56.2,0,51.5v-43C0,3.8,3.8,0,8.5,0h185.7c4.7,0,8.5,3.8,8.5,8.5v43C202.7,56.2,198.9,60,194.2,60z"/>
  <linearGradient gradientTransform="matrix(709.0396 709.0396 709.0396 -709.0396 -910933.625 3036073.25)" gradientUnits="userSpaceOnUse" id="XMLID_6_" x1="-1498.5568" x2="-1498.5846" y1="2783.3352" y2="2783.3518">
    <stop offset="0" style="stop-color:#63FFD4"/>
    <stop offset="0.4854" style="stop-color:#32A0BA"/>
    <stop offset="0.8349" style="stop-color:#1262A9"/>
    <stop offset="1" style="stop-color:#064AA2"/>
  </linearGradient>
  <path d="M17.8,19.6c-0.5,0.1-1.1,0.6-1.1,1.6v26.9c0,0.9,0.3,1.3,0.9,1.7l15.8-15.2L17.8,19.6z
	" fill="url(#XMLID_6_)" id="XMLID_3_"/>
  <linearGradient gradientTransform="matrix(709.0396 709.0396 709.0396 -709.0396 -910933.625 3036073.25)" gradientUnits="userSpaceOnUse" id="XMLID_7_" x1="-1498.5598" x2="-1498.5797" y1="2783.3447" y2="2783.3572">
    <stop offset="0" style="stop-color:#D6FFA1"/>
    <stop offset="0.3264" style="stop-color:#93E2A7"/>
    <stop offset="1" style="stop-color:#00A3B5"/>
  </linearGradient>
  <path d="M37.8,30.1L19.4,19.9c-0.5-0.3-1.3-0.4-1.6-0.3l14.9,14.9L37.8,30.1z" fill="url(#XMLID_7_)" id="XMLID_5_"/>
  <linearGradient gradientTransform="matrix(709.0396 709.0396 709.0396 -709.0396 -910933.625 3036073.25)" gradientUnits="userSpaceOnUse" id="XMLID_8_" x1="-1498.5713" x2="-1498.5455" y1="2783.3552" y2="2783.3484">
    <stop offset="0" style="stop-color:#FF177B"/>
    <stop offset="0.6721" style="stop-color:#FFA976"/>
    <stop offset="1" style="stop-color:#FFEC73"/>
  </linearGradient>
  <path d="M37.8,39.6L44,36c1.3-0.6,1.3-1.8,0-2.5l-6.3-3.5l-5,4.5L37.8,39.6z" fill="url(#XMLID_8_)" id="XMLID_4_"/>
  <linearGradient gradientTransform="matrix(709.0396 709.0396 709.0396 -709.0396 -910933.625 3036073.25)" gradientUnits="userSpaceOnUse" id="XMLID_9_" x1="-1498.5469" x2="-1498.5642" y1="2783.3484" y2="2783.3254">
    <stop offset="0" style="stop-color:#FF4521"/>
    <stop offset="0.3411" style="stop-color:#D43E65"/>
    <stop offset="0.7935" style="stop-color:#9F36B9"/>
    <stop offset="1" style="stop-color:#8A33DB"/>
  </linearGradient>
  <path d="M17.8,49.7c0.3,0.2,0.9,0,1.5-0.2l18.6-10l-5.2-4.9L17.8,49.7z" fill="url(#XMLID_9_)" id="XMLID_2_"/>
  <path
    d="M69.8,17.3h-5.3V8.3h5.3v1.1h-4v2.8h3.6v1.2h-3.6V16h4V17.3z M81.9,8.2h-1.1v9h1.1V8.2z M82.9,9.5h2.5v7.7
	h1.1V9.4H89V8.2h-6V9.5z M76.7,8.2h-6v1.2h2.5v7.7h1.1V9.4h2.4V8.2z M92.5,12.7c0-2.6,1.9-4.5,4.5-4.5c2.6,0,4.5,1.9,4.5,4.5
	c0,2.6-1.9,4.5-4.5,4.5C94.4,17.2,92.5,15.2,92.5,12.7z M93.9,12.7c0,2.1,1.2,3.5,3.2,3.5c1.9,0,3.2-1.5,3.2-3.5
	c0-2-1.4-3.5-3.2-3.5C95.1,9.2,93.9,10.6,93.9,12.7z M104.1,10.1l4.4,7.1h1.5v-9h-1.2V15l-4.5-6.8H103v9h1.1V10.1z M73.1,32.9
	c-3,0-5.9,0-8.9,0c-0.2,0-0.3,0.1-0.3,0.3c0,0.7,0,1.4,0,2.1c0,0.3,0.1,0.4,0.4,0.4c2,0,3.9,0,5.9,0c0.1,0,0.3,0,0.4,0
	c0,0.1,0,0.2,0,0.3c-0.2,1.8-1,3.3-2.5,4.3c-1.5,1-3.2,1.4-5,1.2c-2-0.2-3.6-1.1-4.9-2.6c-1.5-1.8-2-4-1.6-6.3
	c0.5-3.3,3.1-5.8,6.4-6.2c1.9-0.2,3.7,0.2,5.3,1.3c0.3,0.2,0.5,0.4,0.8,0.6c0.6-0.7,1.3-1.3,1.9-2c-0.1-0.1-0.1-0.1-0.1-0.2
	c-0.9-0.9-2-1.5-3.2-2c-1.5-0.6-3.1-0.8-4.7-0.6c-2.6,0.3-4.8,1.4-6.6,3.4c-2.1,2.4-3.1,5.1-2.7,8.3c0.4,2.8,1.7,5.2,3.9,7
	c2.6,2.1,5.6,2.6,8.9,2c2.2-0.4,4-1.5,5.3-3.3c1.7-2.2,2.1-4.8,1.8-7.5C73.4,33,73.3,32.9,73.1,32.9z M116.3,31.7c0,4,0,8,0,12
	c0,1.3-0.3,2.6-0.9,3.7c-0.8,1.5-2.1,2.4-3.8,2.8c-1.8,0.4-3.5,0.2-5.1-0.8c-1.1-0.7-1.8-1.7-2.4-2.9c0.9-0.4,1.7-0.7,2.5-1.1
	c0.1,0.2,0.2,0.3,0.2,0.5c0.7,1.2,1.7,1.9,3.1,1.9c1.9,0,3.3-1.1,3.5-3.1c0.1-0.6,0-1.3,0-2c-0.1,0.1-0.2,0.2-0.3,0.3
	c-0.8,0.8-1.9,1.2-3,1.3c-1.8,0.1-3.3-0.6-4.6-1.8c-1.2-1.1-1.8-2.5-1.9-4.1c-0.2-2.7,0.8-4.9,3-6.5c0.9-0.6,1.9-0.9,2.9-1
	c1.5-0.1,2.7,0.3,3.8,1.4c0,0,0.1,0.1,0.2,0.1c0-0.3,0-0.6,0-0.8c0-0.2,0.1-0.3,0.3-0.3c0.7,0,1.5,0,2.2,0c0.2,0,0.3,0.1,0.3,0.3
	C116.3,31.6,116.3,31.6,116.3,31.7z M113.3,35.4c-1-1.8-3-2.5-4.7-1.5c-1.4,0.8-2,2.1-2.1,3.4c0,1.7,0.5,2.8,1.5,3.6
	c1.5,1.2,3.7,1,4.9-0.5C114,39.1,114.1,36.9,113.3,35.4z M87.8,37.7c0,3.9-3.1,6.7-6.6,6.6c-3.8,0.1-6.7-2.9-6.7-6.7
	c0-3.6,2.7-6.7,6.7-6.7C84.8,30.9,87.8,33.5,87.8,37.7z M84.9,37.6c0-0.7-0.1-1.3-0.4-1.9c-1.1-2.4-4-2.9-5.9-1.2
	c-1.4,1.3-1.7,3.6-0.8,5.3c1,1.8,3,2.5,4.8,1.6C84.2,40.6,84.9,39.3,84.9,37.6z M102.3,37.5c0,4-3.1,6.8-6.6,6.7
	c-3.8,0.1-6.7-3-6.7-6.8c0-3.5,2.7-6.6,6.6-6.6C99.4,30.9,102.3,33.4,102.3,37.5z M99.5,37.6c0-0.7-0.1-1.3-0.4-1.9
	c-0.6-1.3-1.6-2.1-3-2.2c-1.5-0.1-2.6,0.4-3.4,1.7c-1,1.6-1,3.2-0.1,4.8c1,1.7,3.1,2.3,4.8,1.3C98.8,40.5,99.4,39.2,99.5,37.6z
	 M134.7,35.8c-3,1.2-5.9,2.5-8.9,3.7c0.5,1.1,1.3,1.8,2.5,2c1.7,0.3,3.1-0.3,4.1-1.8c0.7,0.5,1.5,1,2.2,1.5
	c-0.4,0.6-0.9,1.1-1.5,1.6c-1.4,1.1-3.1,1.5-4.9,1.3c-3-0.4-5.2-2.5-5.6-5.6c-0.2-1.8,0-3.4,1-5c1.1-1.7,2.6-2.6,4.5-2.8
	c2.7-0.3,4.9,1.3,5.9,3.6C134.3,34.9,134.5,35.3,134.7,35.8z M131.3,34.9c0-0.1-0.1-0.2-0.1-0.2c-0.5-0.8-1.3-1.2-2.2-1.3
	c-1.7-0.1-3.4,1.4-3.7,3.1c-0.1,0.3,0,0.6-0.1,1C127.4,36.5,129.3,35.7,131.3,34.9z M120.9,24.1c-0.7,0-1.5,0-2.2,0
	c-0.3,0-0.4,0.1-0.4,0.4c0,3.2,0,6.3,0,9.5c0,3.2,0,6.3,0,9.5c0,0.3,0.1,0.4,0.4,0.4c0.7,0,1.4,0,2,0c0.5,0,0.5,0,0.5-0.5
	c0-5.9,0-11.8,0-17.7c0-0.4,0-0.8,0-1.2C121.2,24.2,121.1,24.1,120.9,24.1z M191.2,30.1c-0.9,0-1.7,0-2.6,0c-0.2,0-0.3,0.1-0.4,0.3
	c-1.1,2.7-2.2,5.4-3.2,8.1c-0.1,0.3-0.3,0.7-0.5,1.1c-0.3-0.7-0.6-1.4-0.9-2c-1-2.4-1.9-4.7-2.9-7.1c-0.1-0.2-0.2-0.3-0.5-0.3
	c-0.9,0-1.7,0-2.6,0c-0.1,0-0.2,0-0.3,0c0.1,0.1,0.1,0.3,0.2,0.4c0.6,1.3,1.1,2.6,1.7,4c0.7,1.5,1.3,3,1.9,4.5
	c0.6,1.3,1.2,2.7,1.7,4c0,0.1,0,0.2,0,0.3c-0.8,1.9-1.7,3.7-2.5,5.6c-0.2,0.5-0.4,0.9-0.6,1.4c1,0,1.9,0,2.8,0
	c0.1,0,0.2-0.1,0.3-0.2c0.6-1.4,1.2-2.8,1.8-4.2c0.7-1.6,1.4-3.2,2.1-4.9c0.7-1.7,1.5-3.4,2.2-5.1c0.6-1.5,1.2-2.9,1.9-4.4
	c0.2-0.4,0.4-0.8,0.6-1.2c0,0,0-0.1,0-0.1C191.5,30,191.4,30.1,191.2,30.1z M156.3,28.9c0.2,1.2,0.1,2.4-0.5,3.6
	c-0.7,1.5-2,2.6-3.5,3.2c-0.7,0.3-1.5,0.4-2.3,0.4c-1.2,0.1-2.4,0-3.7,0c-0.1,0-0.3,0-0.4,0c0,0.2,0,0.3,0,0.5c0,2.4,0,4.8,0,7.2
	c0,0.3-0.1,0.4-0.4,0.4c-0.8,0-1.5,0-2.3,0c-0.3,0-0.4-0.1-0.4-0.4c0-6.6,0-13.1,0-19.7c0-0.3,0.1-0.4,0.4-0.4c2.1,0,4.3,0,6.4,0
	c1.7,0,3.4,0.5,4.7,1.7C155.4,26.3,156.1,27.5,156.3,28.9z M153.2,29.5c-0.2-1.5-1.7-2.8-3.3-2.8c-1.2,0-2.3,0-3.5,0
	c-0.1,0-0.3,0-0.4,0c0,2.2,0,4.3,0,6.5c0.2,0,0.3,0,0.4,0c1.1,0,2.3,0,3.4,0c0.3,0,0.6,0,0.9-0.1C152.4,32.8,153.5,31,153.2,29.5z
	 M176.2,41.2c0,0.9,0,1.7,0,2.6c0,0.3-0.1,0.4-0.3,0.4c-0.8,0-1.6,0-2.3,0c-0.3,0-0.3-0.1-0.3-0.3c0-0.3,0-0.6,0-1
	c-0.3,0.3-0.6,0.6-0.8,0.8c-0.8,0.6-1.6,0.9-2.5,1c-1.1,0.1-2.1,0.1-3.1-0.3c-1.3-0.4-2.2-1.3-2.8-2.5c-0.2-0.5-0.3-1-0.3-1.6
	c-0.1-0.8,0-1.5,0.3-2.3c0.4-0.9,1-1.5,1.7-2c0.9-0.6,1.9-0.9,2.9-1c0.8-0.1,1.7-0.1,2.5,0c0.7,0.1,1.4,0.3,2.1,0.5
	c0.1-0.6-0.1-1.3-0.5-1.8c-0.7-0.9-1.6-1.2-2.7-1.2c-1,0-1.9,0.3-2.6,1.1c-0.2,0.2-0.3,0.6-0.5,0.9c-0.9-0.4-1.8-0.7-2.7-1.1
	c0.3-1,0.9-1.7,1.7-2.3c1-0.8,2.3-1.2,3.6-1.3c1.4-0.1,2.7,0.2,3.9,0.8c0.9,0.5,1.6,1.2,2.1,2.1c0.5,0.8,0.7,1.7,0.7,2.6
	C176.2,37.2,176.2,39.2,176.2,41.2z M172.8,37.9c-0.8-0.4-1.6-0.4-2.5-0.5c-0.2,0-0.5,0.1-0.7,0.1c-0.9,0-1.7,0.4-2.3,1
	c-0.6,0.6-0.7,1.8-0.1,2.4c0.6,0.7,1.4,0.9,2.3,0.9c0.8,0,1.6-0.3,2.2-0.8c0.8-0.6,1.4-1.3,1.6-2.3
	C173.3,38.3,173.2,38.1,172.8,37.9z M161.2,23.8c-0.8,0-1.5,0-2.3,0c-0.4,0-0.4,0.1-0.4,0.5c0,3.2,0,6.5,0,9.7c0,3.3,0,6.5,0,9.8
	c0,0.3,0.1,0.4,0.4,0.4c0.8,0,1.5,0,2.3,0c0.3,0,0.4-0.1,0.4-0.4c0-6.6,0-13.1,0-19.7C161.6,23.8,161.5,23.7,161.2,23.8z M56,16.5
	c1.2,0.9,2.6,1.2,4,0.9c1-0.2,1.8-0.7,2.4-1.5c0.8-1,0.9-2.2,0.8-3.4c0-0.1-0.1-0.1-0.2-0.1c-1.3,0-2.7,0-4,0c-0.1,0-0.1,0-0.1,0.1
	c0,0.3,0,0.6,0,0.9c0,0.1,0,0.2,0.2,0.2c0.9,0,1.8,0,2.7,0c0.1,0,0.1,0,0.2,0c0,0.1,0,0.1,0,0.1c-0.1,0.8-0.5,1.5-1.1,1.9
	c-0.7,0.5-1.4,0.6-2.3,0.5c-0.9-0.1-1.6-0.5-2.2-1.2c-0.7-0.8-0.9-1.8-0.7-2.8c0.2-1.5,1.4-2.6,2.9-2.8c0.9-0.1,1.7,0.1,2.4,0.6
	c0.1,0.1,0.2,0.2,0.4,0.3c0.3-0.3,0.6-0.6,0.9-0.9c0,0,0-0.1-0.1-0.1c-0.4-0.4-0.9-0.7-1.5-0.9c-0.7-0.3-1.4-0.4-2.1-0.3
	c-1.2,0.1-2.2,0.6-3,1.5c-1,1.1-1.4,2.3-1.2,3.8C54.3,14.7,54.9,15.7,56,16.5z"
    fill="#FFFFFF"/>
</svg>
